<?xml version="1.0" encoding="utf-8"?>
<!-- Generator: Adobe Illustrator 23.0.1, SVG Export Plug-In . SVG Version: 6.00 Build 0)  -->
<svg version="1.1" xmlns="http://www.w3.org/2000/svg" xmlns:xlink="http://www.w3.org/1999/xlink" x="0px" y="0px"
	 viewBox="0 0 1900 1200" style="enable-background:new 0 0 1900 1200;" xml:space="preserve">
<style type="text/css">
	.st0{display:none;}
	.st1{fill:#FFFFFF;}
	.st2{fill:#5C6BC0;}
	.st3{fill:none;stroke:#5C6BC0;stroke-miterlimit:10;}
	.st4{opacity:0.4;}
	.st5{fill:url(#SVGID_1_);}
	.st6{display:inline;opacity:0.2;}
	.st7{fill:#FFFFFF;stroke:#5C6BC0;stroke-width:3;stroke-miterlimit:10;}
	.st8{fill:#5C6BC0;stroke:#5C6BC0;stroke-width:2;stroke-miterlimit:10;}
	.st9{fill:#5C6BC0;stroke:#5C6BC0;stroke-width:3;stroke-miterlimit:10;}
	.st10{fill:none;stroke:#5C6BC0;stroke-width:3;stroke-miterlimit:10;}
	.st11{display:inline;opacity:0.8;fill:#FFFFFF;}
</style>
<g id="Layer_1" class="st0">
</g>
<g id="Layer_2">
</g>
<g id="Layer_5">
	<g>
		<g>
			<polygon class="st1" points="128.81,544 68.19,544 37.88,596.5 68.19,649 128.81,649 159.12,596.5 			"/>
			<path class="st2" d="M129.68,650.5H67.32l-31.18-54l31.18-54h62.35l31.18,54L129.68,650.5z M69.06,647.5h58.89l29.44-51
				l-29.44-51H69.06l-29.44,51L69.06,647.5z"/>
		</g>
		<g>
			<polygon class="st1" points="310.81,544.5 250.19,544.5 219.88,597 250.19,649.5 310.81,649.5 341.12,597 			"/>
			<path class="st2" d="M311.68,651h-62.35l-31.18-54l31.18-54h62.35l31.18,54L311.68,651z M251.06,648h58.89l29.44-51l-29.44-51
				h-58.89l-29.44,51L251.06,648z"/>
		</g>
		<g>
			<polygon class="st1" points="68.05,861 63.87,868 63.57,868.5 63.28,869 36.67,913.5 0,913.5 0,808.5 36.67,808.5 39.68,813.54 
				40.54,814.96 42.19,817.73 42.32,817.95 42.4,818.09 59.06,845.96 59.49,846.69 63.74,853.8 63.83,853.94 			"/>
			<path class="st2" d="M69.25,860l-22.36-37.4l-0.04-0.06l-3.09-5.16v-0.01l-0.1-0.17l-5.58-9.33l-0.18-0.31l-0.11-0.18l-0.06-0.11
				L37.56,807H0v3h35.77l4.66,7.8l0.43,0.71l0.06,0.1L66.27,861l-4.19,7l-0.47,0.79L61.48,869l-25.71,43H0v3h37.56l27.5-46l0.6-1
				l4.19-7L69.25,860z"/>
		</g>
		<g>
			<polygon class="st1" points="491.81,649.5 431.19,649.5 400.88,702 431.19,754.5 491.81,754.5 522.12,702 			"/>
			<path class="st2" d="M492.68,756h-62.35l-31.18-54l31.18-54h62.35l31.18,54L492.68,756z M432.06,753h58.89l29.44-51l-29.44-51
				h-58.89l-29.44,51L432.06,753z"/>
		</g>
		<g>
			<polygon class="st1" points="946.81,806.5 886.19,806.5 855.88,859 886.19,911.5 946.81,911.5 977.12,859 			"/>
			<path class="st2" d="M947.68,913h-62.35l-31.18-54l31.18-54h62.35l31.18,54L947.68,913z M887.06,910h58.89l29.44-51l-29.44-51
				h-58.89l-29.44,51L887.06,910z"/>
		</g>
		<g>
			<polygon class="st1" points="1037.81,648.5 977.19,648.5 946.88,701 977.19,753.5 1037.81,753.5 1068.12,701 			"/>
			<path class="st2" d="M1038.68,755h-62.35l-31.18-54l31.18-54h62.35l31.18,54L1038.68,755z M978.06,752h58.89l29.45-51l-29.45-51
				h-58.89l-29.45,51L978.06,752z"/>
		</g>
		<g>
			<polygon class="st1" points="1311.81,700.5 1251.19,700.5 1220.88,753 1251.19,805.5 1311.81,805.5 1342.12,753 			"/>
			<path class="st2" d="M1312.68,807h-62.35l-31.18-54l31.18-54h62.35l31.18,54L1312.68,807z M1252.06,804h58.89l29.45-51l-29.45-51
				h-58.89l-29.45,51L1252.06,804z"/>
		</g>
		<g>
			<polygon class="st1" points="1584.81,752.5 1524.19,752.5 1493.88,805 1524.19,857.5 1584.81,857.5 1615.12,805 			"/>
			<path class="st2" d="M1585.68,859h-62.35l-31.18-54l31.18-54h62.35l31.18,54L1585.68,859z M1525.06,856h58.89l29.45-51l-29.45-51
				h-58.89l-29.45,51L1525.06,856z"/>
		</g>
		<g>
			<polygon class="st1" points="1766.81,649.5 1706.19,649.5 1675.88,702 1706.19,754.5 1766.81,754.5 1797.12,702 			"/>
			<path class="st2" d="M1767.68,756h-62.35l-31.18-54l31.18-54h62.35l31.18,54L1767.68,756z M1707.06,753h58.89l29.45-51l-29.45-51
				h-58.89l-29.45,51L1707.06,753z"/>
		</g>
		<g>
			<polygon class="st1" points="764.81,807.5 704.19,807.5 673.88,860 704.19,912.5 764.81,912.5 795.12,860 			"/>
			<path class="st2" d="M765.68,914h-62.35l-31.18-54l31.18-54h62.35l31.18,54L765.68,914z M705.06,911h58.89l29.44-51l-29.44-51
				h-58.89l-29.44,51L705.06,911z"/>
		</g>
		<g>
			<polygon class="st1" points="673.81,544.5 613.19,544.5 582.88,597 613.19,649.5 673.81,649.5 704.12,597 			"/>
			<path class="st2" d="M674.68,651h-62.35l-31.18-54l31.18-54h62.35l31.18,54L674.68,651z M614.06,648h58.89l29.44-51l-29.44-51
				h-58.89l-29.44,51L614.06,648z"/>
		</g>
		<g>
			<polygon class="st1" points="310.81,755.5 250.19,755.5 219.88,808 250.19,860.5 310.81,860.5 341.12,808 			"/>
			<path class="st2" d="M311.68,862h-62.35l-31.18-54l31.18-54h62.35l31.18,54L311.68,862z M251.06,859h58.89l29.44-51l-29.44-51
				h-58.89l-29.44,51L251.06,859z"/>
		</g>
		<g>
			<path class="st2" d="M130.25,757H66.75l-31.75-55l31.75-55h63.51l31.75,55L130.25,757z M69.63,752h57.74l28.87-50l-28.87-50
				H69.63l-28.87,50L69.63,752z"/>
		</g>
		<g>
			<polygon class="st1" points="491.81,755.5 431.19,755.5 400.88,808 431.19,860.5 491.81,860.5 522.12,808 			"/>
			<path class="st2" d="M493.25,863h-63.51l-31.75-55l31.75-55h63.51l31.75,55L493.25,863z M432.63,858h57.74l28.87-50l-28.87-50
				h-57.74l-28.87,50L432.63,858z"/>
		</g>
		<g>
			<polygon class="st1" points="764.81,597.5 704.19,597.5 673.88,650 704.19,702.5 764.81,702.5 795.12,650 			"/>
			<path class="st2" d="M766.25,705h-63.51l-31.75-55l31.75-55h63.51l31.75,55L766.25,705z M705.63,700h57.74l28.87-50l-28.87-50
				h-57.74l-28.87,50L705.63,700z"/>
		</g>
		<g>
			<polygon class="st1" points="1128.81,597.5 1068.19,597.5 1037.88,650 1068.19,702.5 1128.81,702.5 1159.12,650 			"/>
			<path class="st2" d="M1130.25,705h-63.51l-31.75-55l31.75-55h63.51l31.75,55L1130.25,705z M1069.63,700h57.73l28.87-50l-28.87-50
				h-57.73l-28.87,50L1069.63,700z"/>
		</g>
		<g>
			<polygon class="st1" points="1493.81,596.5 1433.19,596.5 1402.88,649 1433.19,701.5 1493.81,701.5 1524.12,649 			"/>
			<path class="st2" d="M1495.25,704h-63.51l-31.75-55l31.75-55h63.51l31.75,55L1495.25,704z M1434.63,699h57.73l28.87-50l-28.87-50
				h-57.73l-28.87,50L1434.63,699z"/>
		</g>
		<g>
			<polygon class="st1" points="1857.81,700.5 1797.19,700.5 1766.88,753 1797.19,805.5 1857.81,805.5 1888.12,753 			"/>
			<path class="st2" d="M1859.25,808h-63.51l-31.75-55l31.75-55h63.51l31.75,55L1859.25,808z M1798.63,803h57.73l28.87-50l-28.87-50
				h-57.73l-28.87,50L1798.63,803z"/>
		</g>
		<g>
			<path class="st2" d="M220.1,702h-61.2l-30.6-53l0.14-0.25L158.9,596h61.2l30.6,53l-0.14,0.25L220.1,702z M159.48,701h60.04
				l30.02-52l-30.02-52h-60.04l-30.02,52L159.48,701z"/>
		</g>
		<g>
			<path class="st2" d="M220.1,808h-61.2l-30.6-53l0.14-0.25L158.9,702h61.2l30.6,53l-0.14,0.25L220.1,808z M159.48,807h60.04
				l30.02-52l-30.02-52h-60.04l-30.02,52L159.48,807z"/>
		</g>
		<g>
			<path class="st2" d="M402.1,808h-61.2l-30.6-53l0.14-0.25L340.9,702h61.2l30.6,53l-0.14,0.25L402.1,808z M341.48,807h60.04
				l30.02-52l-30.02-52h-60.04l-30.02,52L341.48,807z"/>
		</g>
		<g>
			<path class="st2" d="M583.1,703h-61.2l-30.6-53l0.14-0.25L521.9,597h61.2l30.6,53l-0.14,0.25L583.1,703z M522.48,702h60.04
				l30.02-52l-30.02-52h-60.04l-30.02,52L522.48,702z"/>
		</g>
		<g>
			<path class="st2" d="M856.1,860h-61.2l-30.6-53l0.14-0.25L794.9,754h61.2l30.6,53l-0.14,0.25L856.1,860z M795.48,859h60.04
				l30.02-52l-30.02-52h-60.04l-30.02,52L795.48,859z"/>
		</g>
		<g>
			<path class="st2" d="M947.1,807h-61.2l-30.6-53l0.14-0.25L885.9,701h61.2l30.6,53L947.1,807z M886.48,806h60.04l30.02-52
				l-30.02-52h-60.04l-30.02,52L886.48,806z"/>
		</g>
		<g>
			<path class="st2" d="M583.1,913h-61.2l-30.6-53l0.14-0.25L521.9,807h61.2l30.6,53l-0.14,0.25L583.1,913z M522.48,912h60.04
				l30.02-52l-30.02-52h-60.04l-30.02,52L522.48,912z"/>
		</g>
		<g>
			<path class="st2" d="M674.1,860h-61.2l-30.6-53l0.14-0.25L612.9,754h61.2l30.6,53l-0.14,0.25L674.1,860z M613.48,859h60.04
				l30.02-52l-30.02-52h-60.04l-30.02,52L613.48,859z"/>
		</g>
		<g>
			<path class="st2" d="M765.1,807h-61.2l-30.6-53l0.14-0.25L703.9,701h61.2l30.6,53l-0.14,0.25L765.1,807z M704.48,806h60.04
				l30.02-52l-30.02-52h-60.04l-30.02,52L704.48,806z"/>
		</g>
		<g>
			<path class="st2" d="M856.1,650h-61.2l-30.6-53l0.14-0.25L794.9,544h61.2l30.6,53l-0.14,0.25L856.1,650z M795.48,649h60.04
				l30.02-52l-30.02-52h-60.04l-30.02,52L795.48,649z"/>
		</g>
		<g>
			<path class="st2" d="M1129.1,807h-61.2l-0.14-0.25L1037.3,754l30.6-53h61.2l0.14,0.25L1159.7,754L1129.1,807z M1068.48,806h60.04
				l30.02-52l-30.02-52h-60.04l-30.02,52L1068.48,806z"/>
		</g>
		<g>
			<path class="st2" d="M1220.1,754h-61.2l-0.14-0.25L1128.3,701l30.6-53h61.2l0.14,0.25L1250.7,701L1220.1,754z M1159.48,753h60.04
				l30.02-52l-30.02-52h-60.04l-30.02,52L1159.48,753z"/>
		</g>
		<g>
			<path class="st2" d="M1403.1,754h-61.2l-0.14-0.25L1311.3,701l30.6-53h61.2l0.14,0.25L1433.7,701L1403.1,754z M1342.48,753h60.04
				l30.02-52l-30.02-52h-60.04l-30.02,52L1342.48,753z"/>
		</g>
		<g>
			<path class="st2" d="M1494.1,806h-61.2l-0.14-0.25L1402.3,753l30.6-53h61.2l0.14,0.25L1524.7,753L1494.1,806z M1433.48,805h60.04
				l30.02-52l-30.02-52h-60.04l-30.02,52L1433.48,805z"/>
		</g>
		<g>
			<path class="st2" d="M1676.1,806h-61.2l-0.14-0.25L1584.3,753l30.6-53h61.2l0.14,0.25L1706.7,753L1676.1,806z M1615.48,805h60.04
				l30.02-52l-30.02-52h-60.04l-30.02,52L1615.48,805z"/>
		</g>
		<g>
			<path class="st2" d="M1767.1,858h-61.2l-0.14-0.25L1675.3,805l30.6-53h61.2l0.14,0.25L1797.7,805L1767.1,858z M1706.48,857h60.04
				l30.02-52l-30.02-52h-60.04l-30.02,52L1706.48,857z"/>
		</g>
		<g>
			<path class="st2" d="M1767.1,650h-61.2l-0.14-0.25L1675.3,597l30.6-53h61.2l0.14,0.25L1797.7,597L1767.1,650z M1706.48,649h60.04
				l30.02-52l-30.02-52h-60.04l-30.02,52L1706.48,649z"/>
		</g>
		<g>
			<path class="st2" d="M1858.68,598h-62.35l-31.18-54l31.18-54h62.35l31.18,54L1858.68,598z M1798.06,595h58.89l29.45-51l-29.45-51
				h-58.89l-29.45,51L1798.06,595z"/>
		</g>
		<g>
			<path class="st2" d="M1858.9,490.31l25.58-43.31l0.6-1l4.13-7H1900v-1h-11.38l-4.73,8l-0.6,1l-25.4,43l-0.59,1l31.17,52.75
				l0.15,0.25H1900v-1h-10.79l-30.72-52l0.39-0.65L1858.9,490.31z"/>
		</g>
		<g>
			<path class="st2" d="M1884.59,760l-0.59,1h1.18l0.58-1H1884.59z M1884.59,760l-0.59,1h1.18l0.58-1H1884.59z M1884.59,760l-0.59,1
				h1.18l0.58-1H1884.59z M1884.59,760l-0.59,1h1.18l0.58-1H1884.59z M1889.26,752l-0.29,0.49l-4.38,7.51l-0.59,1l-20.66,35.38
				l-5.04,8.62l1.35,2.31l4.54,7.78l24.93,42.66l0.14,0.25H1900V752H1889.26z M1899.99,857h-10.14l-24.84-42.52l-4.78-8.18
				l-0.76-1.3l4.73-8.09l20.98-35.91l0.58-1l4.09-7h10.14V857z M1884.59,760l-0.59,1h1.18l0.58-1H1884.59z M1884.59,760l-0.59,1
				h1.18l0.58-1H1884.59z M1884.59,760l-0.59,1h1.18l0.58-1H1884.59z"/>
		</g>
		<g>
			<path class="st2" d="M1889.26,647l-4.67,8l-0.59,1l-24.64,42.19l-1.06,1.81l30.67,52.49l0.15,0.26l0.14,0.25H1900V647H1889.26z
				 M1899.99,752h-10.14l-30.38-52l0.47-0.8l25.24-43.2l0.58-1l4.09-7h10.14V752z"/>
		</g>
		<g>
			<path class="st2" d="M1585.1,649h-61.2l-0.14-0.25L1493.3,596l30.6-53h61.2l0.14,0.25L1615.7,596L1585.1,649z M1524.48,648h60.04
				l30.02-52l-30.02-52h-60.04l-30.02,52L1524.48,648z"/>
		</g>
		<g>
			<path class="st2" d="M1403.1,649h-61.2l-0.14-0.25L1311.3,596l30.6-53h61.2l0.14,0.25L1433.7,596L1403.1,649z M1342.48,648h60.04
				l30.02-52l-30.02-52h-60.04l-30.02,52L1342.48,648z"/>
		</g>
		<g>
			<path class="st2" d="M1038.1,860h-61.2l-0.14-0.25L946.3,807l0.14-0.25L976.9,754h61.2l0.14,0.25L1068.7,807L1038.1,860z
				 M977.48,859h60.04l30.02-52l-30.02-52h-60.04l-30.02,52L977.48,859z"/>
		</g>
		<g>
			<path class="st2" d="M674.1,650h-61.2l-30.6-53l0.14-0.25L612.9,544h61.2l30.6,53l-0.14,0.25L674.1,650z M613.48,649h60.04
				l30.02-52l-30.02-52h-60.04l-30.02,52L613.48,649z"/>
		</g>
		<g>
			<path class="st2" d="M129.1,861H67.9l-30.6-53l0.14-0.25L67.9,755h61.2l30.6,53l-0.14,0.25L129.1,861z M68.48,860h60.04l30.02-52
				l-30.02-52H68.48l-30.02,52L68.48,860z"/>
		</g>
		<g>
			<path class="st2" d="M37.51,702.12L37.44,702H0v1h36.84l30.67,52l-0.97,1.64L64.56,760l-1.77,3l-0.59,1l-0.59,1l-19.37,32.85
				l-0.11,0.19L36.84,807H0v1h37.44l0.04-0.07l0.21-0.37l0.1-0.18l0.23-0.38l5.02-8.49l0.13-0.22L62.8,765l0.59-1l0.59-1l3.54-6
				l1.18-2L37.51,702.12z M66.75,757l-0.21-0.36L64.56,760l-1.77,3l-0.59,1l-0.59,1l-19.37,32.85c0.23,0.09,0.45,0.19,0.67,0.3
				c0.02,0.01,0.04,0.02,0.06,0.03L62.13,765l0.57-1h0.01l0.57-1h0.7l3.54-6H66.75z"/>
		</g>
		<g>
			<path class="st2" d="M66.91,647l-26.69-44.6l-3.23-5.4H0v1h36.4l2.85,4.76l14.81,24.77l0.03,0.06l0.16,0.27l0.05,0.08
				l11.94,19.95L67.5,650l-0.24,0.4l-2.75,4.6l-0.3,0.5l-1.8,3l-25.98,43.44L36.4,702H0v1h36.99l0.52-0.88L62.71,660l0.9-1.5
				l0.45-0.75l1.35-2.25l0.3-0.5l2.69-4.5l0.3-0.5L66.91,647z M67.32,650.5l-0.06-0.1l-2.75,4.6l-0.3,0.5l-1.8,3l-25.98,43.44
				L36.4,702H0v1h36.99l0.52-0.88L62.71,660l0.9-1.5l0.45-0.75l1.35-2.25l0.3-0.5l2.69-4.5H67.32z"/>
		</g>
		<g>
			<circle class="st2" cx="128.5" cy="650.5" r="11"/>
		</g>
		<g>
			<circle class="st2" cx="248" cy="441" r="11"/>
		</g>
		<g>
			<circle class="st2" cx="251" cy="756" r="11"/>
		</g>
		<g>
			<circle class="st2" cx="522" cy="703" r="11"/>
		</g>
		<g>
			<circle class="st2" cx="432" cy="859" r="11"/>
		</g>
		<g>
			<circle class="st2" cx="764" cy="807" r="11"/>
		</g>
		<g>
			<circle class="st2" cx="1038" cy="649" r="11"/>
		</g>
		<g>
			<circle class="st2" cx="1524" cy="648" r="11"/>
		</g>
		<g>
			<circle class="st2" cx="1706" cy="754" r="11"/>
		</g>
		<g>
			<circle class="st2" cx="1403" cy="439" r="11"/>
		</g>
		<g>
			<circle class="st2" cx="1798" cy="597" r="11"/>
		</g>
		<g>
			<circle class="st2" cx="1858" cy="806" r="11"/>
		</g>
		<g>
			<circle class="st2" cx="219" cy="913" r="11"/>
		</g>
		<g>
			<circle class="st2" cx="341" cy="597" r="11"/>
		</g>
		<g>
			<circle class="st2" cx="38" cy="808" r="11"/>
		</g>
		<g>
			<circle class="st2" cx="128.5" cy="754.5" r="9.5"/>
		</g>
		<g>
			<circle class="st2" cx="521.5" cy="807.5" r="9.5"/>
		</g>
		<g>
			<circle class="st2" cx="673.5" cy="756.5" r="9.5"/>
		</g>
		<g>
			<circle class="st2" cx="977.5" cy="755.5" r="9.5"/>
		</g>
		<g>
			<circle class="st2" cx="1128.5" cy="912.5" r="9.5"/>
		</g>
		<g>
			<circle class="st2" cx="1220.5" cy="753.5" r="9.5"/>
		</g>
		<g>
			<circle class="st2" cx="1675.5" cy="386.5" r="9.5"/>
		</g>
		<g>
			<circle class="st2" cx="491.5" cy="438.5" r="9.5"/>
		</g>
		<g>
			<circle class="st2" cx="250.5" cy="649.5" r="6.5"/>
		</g>
		<g>
			<circle class="st2" cx="400.5" cy="703.5" r="6.5"/>
		</g>
		<g>
			<circle class="st2" cx="886.5" cy="911.5" r="6.5"/>
		</g>
		<g>
			<circle class="st2" cx="704.5" cy="596.5" r="6.5"/>
		</g>
		<g>
			<circle class="st2" cx="886.5" cy="597.5" r="6.5"/>
		</g>
		<g>
			<circle class="st2" cx="582.5" cy="597.5" r="6.5"/>
		</g>
		<g>
			<circle class="st2" cx="764.5" cy="702.5" r="6.5"/>
		</g>
		<g>
			<circle class="st2" cx="613.5" cy="859.5" r="6.5"/>
		</g>
		<g>
			<circle class="st2" cx="855.5" cy="754.5" r="6.5"/>
		</g>
		<g>
			<circle class="st2" cx="1250.5" cy="912.5" r="6.5"/>
		</g>
		<g>
			<circle class="st2" cx="1403.5" cy="858.5" r="6.5"/>
		</g>
		<g>
			<circle class="st2" cx="310.5" cy="860.5" r="6.5"/>
		</g>
		<g>
			<circle class="st2" cx="37.5" cy="596.5" r="6.5"/>
		</g>
		<g>
			<circle class="st2" cx="251.5" cy="544.5" r="6.5"/>
		</g>
		<g>
			<circle class="st2" cx="400.5" cy="493.5" r="6.5"/>
		</g>
		<g>
			<circle class="st2" cx="855.5" cy="967.5" r="6.5"/>
		</g>
		<g>
			<circle class="st2" cx="673.5" cy="440.5" r="6.5"/>
		</g>
		<g>
			<path class="st3" d="M613.5,754.5"/>
		</g>
		<g>
			<polygon class="st2" points="1250.07,912.75 1219.34,860.25 1159.59,860.25 1159.44,860 1128.07,806.75 1128.93,806.25 
				1160.16,859.25 1219.91,859.25 1250.93,912.25 			"/>
		</g>
		<g>
			<polygon class="st2" points="219.5,913 159.21,913 128.07,859.75 128.93,859.25 159.79,912 219.5,912 			"/>
		</g>
		<g>
			<polygon class="st2" points="1129,912.5 1068.71,912.5 1037.57,859.75 1038.43,859.25 1069.29,911.5 1129,911.5 			"/>
		</g>
		<g>
			<circle class="st2" cx="1857.5" cy="907.5" r="9.5"/>
		</g>
		<g>
			<polygon class="st2" points="1858,910 1797.71,910 1766.57,857.25 1767.43,856.75 1798.29,909 1858,909 			"/>
		</g>
		<g>
			<polygon class="st2" points="1403,860 1342.14,860 1310.71,806.76 1313.29,805.24 1343.86,857 1403,857 			"/>
		</g>
		<g>
			<polygon class="st2" points="855.5,968 794.64,968 763.21,914.26 765.79,912.74 796.36,965 855.5,965 			"/>
		</g>
		<g>
			<polygon class="st2" points="129.3,546.25 126.7,544.75 157.13,492 217.13,492 246.69,439.76 249.31,441.24 218.87,495 
				158.87,495 			"/>
		</g>
		<g>
			<circle class="st2" cx="1161.5" cy="544.5" r="6.5"/>
		</g>
		<g>
			<circle class="st2" cx="1128.5" cy="807.5" r="6.5"/>
		</g>
		<g>
			<circle class="st2" cx="1433.5" cy="702.5" r="6.5"/>
		</g>
		<g>
			<circle class="st2" cx="1584.5" cy="752.5" r="6.5"/>
		</g>
		<g>
			<circle class="st2" cx="1615.5" cy="596.5" r="6.5"/>
		</g>
		<g>
			<circle class="st2" cx="1797.5" cy="702.5" r="6.5"/>
		</g>
		<g>
			<circle class="st2" cx="1766.5" cy="857.5" r="6.5"/>
		</g>
		<g>
			<circle class="st2" cx="1342.5" cy="649.5" r="6.5"/>
		</g>
		<g>
			<polygon class="st2" points="1312,597 1251.72,597 1220.72,545 1161,545 1161,544 1221.28,544 1252.28,596 1312,596 			"/>
		</g>
		<g>
			<circle class="st2" cx="1616.5" cy="492.5" r="6.5"/>
		</g>
		<g>
			<polygon class="st2" points="1766,545 1705.72,545 1674.72,493 1615,493 1615,492 1675.28,492 1706.28,544 1766,544 			"/>
		</g>
		<g>
			<path class="st3" d="M397.5,701.5"/>
		</g>
		<g>
			<polygon class="st2" points="795.07,545.75 764.21,493 704.22,493 673.07,440.76 673.93,440.24 704.78,492 764.79,492 
				795.93,545.25 			"/>
		</g>
		<g>
			<polygon class="st2" points="1524.07,543.75 1493.21,491 1433.22,491 1402.07,438.76 1402.93,438.24 1433.78,490 1493.79,490 
				1524.93,543.25 			"/>
		</g>
		<g>
			<polygon class="st2" points="1796.21,492.26 1765.64,440 1705.65,440 1674.21,387.27 1676.79,385.73 1707.35,437 1767.36,437 
				1798.79,490.74 			"/>
		</g>
		<g>
			<circle class="st2" cx="946.5" cy="493.5" r="6.5"/>
		</g>
		<g>
			<polygon class="st2" points="1066.34,599.76 1036.07,548 976.08,548 944.35,494.78 948.65,492.22 978.92,543 1038.93,543 
				1070.66,597.24 			"/>
		</g>
		<g>
			<polygon class="st2" points="612.21,544.26 581.64,492 521.65,492 490.21,439.27 492.79,437.73 523.35,489 583.36,489 
				614.79,542.74 			"/>
		</g>
		<g>
			<polygon class="st2" points="69.79,544.74 67.21,546.26 67.05,545.98 66.17,544.49 36.64,494 0.5,494 0.5,491 38.36,491 
				68.48,542.5 69.36,544 			"/>
		</g>
		<g>
			<polygon class="st2" points="522.07,598.75 491.21,546 431.22,546 400.07,493.76 400.93,493.24 431.78,545 491.79,545 
				522.93,598.25 			"/>
		</g>
	</g>
	<g class="st4">
		<g>
			<path class="st2" d="M121.68,658.5H59.32l-31.18-54l31.18-54h62.35l31.18,54L121.68,658.5z M61.06,655.5h58.89l29.44-51
				l-29.44-51H61.06l-29.44,51L61.06,655.5z"/>
		</g>
		<g>
			<path class="st2" d="M303.68,659h-62.35l-31.18-54l31.18-54h62.35l31.18,54L303.68,659z M243.06,656h58.89l29.44-51l-29.44-51
				h-58.89l-29.44,51L243.06,656z"/>
		</g>
		<g>
			<path class="st2" d="M61.73,868.79L61.26,868l-25.28-42.77l-5.33-9.05l-0.02-0.02l-0.13-0.22L29.94,815H0v108h29.94l4.73-8
				l0.88-1.5l26.3-44.5L61.73,868.79z M31.12,915l-2.95,5H0.07V818h28.1l5.04,8.53L58.31,869L32.9,912L31.12,915z"/>
		</g>
		<g>
			<path class="st2" d="M484.68,764h-62.35l-31.18-54l31.18-54h62.35l31.18,54L484.68,764z M424.06,761h58.89l29.44-51l-29.44-51
				h-58.89l-29.44,51L424.06,761z"/>
		</g>
		<g>
			<path class="st2" d="M939.68,921h-62.35l-31.18-54l31.18-54h62.35l31.18,54L939.68,921z M879.06,918h58.89l29.44-51l-29.44-51
				h-58.89l-29.44,51L879.06,918z"/>
		</g>
		<g>
			<path class="st2" d="M1030.68,763h-62.35l-31.18-54l31.18-54h62.35l31.18,54L1030.68,763z M970.06,760h58.89l29.45-51l-29.45-51
				h-58.89l-29.45,51L970.06,760z"/>
		</g>
		<g>
			<polygon class="st1" points="1303.81,708.5 1243.19,708.5 1212.88,761 1243.19,813.5 1303.81,813.5 1334.12,761 			"/>
			<path class="st2" d="M1304.68,815h-62.35l-31.18-54l31.18-54h62.35l31.18,54L1304.68,815z M1244.06,812h58.89l29.45-51l-29.45-51
				h-58.89l-29.45,51L1244.06,812z"/>
		</g>
		<g>
			<polygon class="st1" points="1576.81,760.5 1516.19,760.5 1485.88,813 1516.19,865.5 1576.81,865.5 1607.12,813 			"/>
			<path class="st2" d="M1577.68,867h-62.35l-31.18-54l31.18-54h62.35l31.18,54L1577.68,867z M1517.06,864h58.89l29.45-51l-29.45-51
				h-58.89l-29.45,51L1517.06,864z"/>
		</g>
		<g>
			<path class="st2" d="M1759.68,764h-62.35l-31.18-54l31.18-54h62.35l31.18,54L1759.68,764z M1699.06,761h58.89l29.45-51l-29.45-51
				h-58.89l-29.45,51L1699.06,761z"/>
		</g>
		<g>
			<polygon class="st1" points="756.81,815.5 696.19,815.5 665.88,868 696.19,920.5 756.81,920.5 787.12,868 			"/>
			<path class="st2" d="M757.68,922h-62.35l-31.18-54l31.18-54h62.35l31.18,54L757.68,922z M697.06,919h58.89l29.44-51l-29.44-51
				h-58.89l-29.44,51L697.06,919z"/>
		</g>
		<g>
			<path class="st2" d="M666.68,659h-62.35l-31.18-54l31.18-54h62.35l31.18,54L666.68,659z M606.06,656h58.89l29.44-51l-29.44-51
				h-58.89l-29.44,51L606.06,656z"/>
		</g>
		<g>
			<path class="st2" d="M303.68,870h-62.35l-31.18-54l31.18-54h62.35l31.18,54L303.68,870z M243.06,867h58.89l29.44-51l-29.44-51
				h-58.89l-29.44,51L243.06,867z"/>
		</g>
		<g>
			<path class="st2" d="M122.25,765H58.75l-31.75-55l31.75-55h63.51l31.75,55L122.25,765z M61.63,760h57.74l28.87-50l-28.87-50
				H61.63l-28.87,50L61.63,760z"/>
		</g>
		<g>
			<path class="st2" d="M485.25,871h-63.51l-31.75-55l31.75-55h63.51l31.75,55L485.25,871z M424.63,866h57.74l28.87-50l-28.87-50
				h-57.74l-28.87,50L424.63,866z"/>
		</g>
		<g>
			<path class="st2" d="M758.25,713h-63.51l-31.75-55l31.75-55h63.51l31.75,55L758.25,713z M697.63,708h57.74l28.87-50l-28.87-50
				h-57.74l-28.87,50L697.63,708z"/>
		</g>
		<g>
			<path class="st2" d="M1122.25,713h-63.51l-31.75-55l31.75-55h63.51l31.75,55L1122.25,713z M1061.63,708h57.73l28.87-50l-28.87-50
				h-57.73l-28.87,50L1061.63,708z"/>
		</g>
		<g>
			<path class="st2" d="M1487.25,712h-63.51l-31.75-55l31.75-55h63.51l31.75,55L1487.25,712z M1426.63,707h57.73l28.87-50l-28.87-50
				h-57.73l-28.87,50L1426.63,707z"/>
		</g>
		<g>
			<path class="st2" d="M1851.25,816h-63.51l-31.75-55l31.75-55h63.51l31.75,55L1851.25,816z M1790.63,811h57.73l28.87-50l-28.87-50
				h-57.73l-28.87,50L1790.63,811z"/>
		</g>
		<g>
			<path class="st2" d="M212.1,710h-61.2l-30.6-53l0.14-0.25L150.9,604h61.2l30.6,53l-0.14,0.25L212.1,710z M151.48,709h60.04
				l30.02-52l-30.02-52h-60.04l-30.02,52L151.48,709z"/>
		</g>
		<g>
			<path class="st2" d="M212.1,816h-61.2l-30.6-53l0.14-0.25L150.9,710h61.2l30.6,53l-0.14,0.25L212.1,816z M151.48,815h60.04
				l30.02-52l-30.02-52h-60.04l-30.02,52L151.48,815z"/>
		</g>
		<g>
			<path class="st2" d="M394.1,816h-61.2l-30.6-53l0.14-0.25L332.9,710h61.2l30.6,53l-0.14,0.25L394.1,816z M333.48,815h60.04
				l30.02-52l-30.02-52h-60.04l-30.02,52L333.48,815z"/>
		</g>
		<g>
			<path class="st2" d="M575.1,711h-61.2l-30.6-53l0.14-0.25L513.9,605h61.2l30.6,53l-0.14,0.25L575.1,711z M514.48,710h60.04
				l30.02-52l-30.02-52h-60.04l-30.02,52L514.48,710z"/>
		</g>
		<g>
			<path class="st2" d="M848.1,868h-61.2l-30.6-53l0.14-0.25L786.9,762h61.2l30.6,53l-0.14,0.25L848.1,868z M787.48,867h60.04
				l30.02-52l-30.02-52h-60.04l-30.02,52L787.48,867z"/>
		</g>
		<g>
			<path class="st2" d="M939.1,815h-61.2l-30.6-53l0.14-0.25L877.9,709h61.2l30.6,53L939.1,815z M878.48,814h60.04l30.02-52
				l-30.02-52h-60.04l-30.02,52L878.48,814z"/>
		</g>
		<g>
			<path class="st2" d="M575.1,921h-61.2l-30.6-53l0.14-0.25L513.9,815h61.2l30.6,53l-0.14,0.25L575.1,921z M514.48,920h60.04
				l30.02-52l-30.02-52h-60.04l-30.02,52L514.48,920z"/>
		</g>
		<g>
			<path class="st2" d="M666.1,868h-61.2l-30.6-53l0.14-0.25L604.9,762h61.2l30.6,53l-0.14,0.25L666.1,868z M605.48,867h60.04
				l30.02-52l-30.02-52h-60.04l-30.02,52L605.48,867z"/>
		</g>
		<g>
			<path class="st2" d="M757.1,815h-61.2l-30.6-53l0.14-0.25L695.9,709h61.2l30.6,53l-0.14,0.25L757.1,815z M696.48,814h60.04
				l30.02-52l-30.02-52h-60.04l-30.02,52L696.48,814z"/>
		</g>
		<g>
			<path class="st2" d="M848.1,658h-61.2l-30.6-53l0.14-0.25L786.9,552h61.2l30.6,53l-0.14,0.25L848.1,658z M787.48,657h60.04
				l30.02-52l-30.02-52h-60.04l-30.02,52L787.48,657z"/>
		</g>
		<g>
			<path class="st2" d="M1121.1,815h-61.2l-0.14-0.25L1029.3,762l30.6-53h61.2l0.14,0.25L1151.7,762L1121.1,815z M1060.48,814h60.04
				l30.02-52l-30.02-52h-60.04l-30.02,52L1060.48,814z"/>
		</g>
		<g>
			<path class="st2" d="M1212.1,762h-61.2l-0.14-0.25L1120.3,709l30.6-53h61.2l0.14,0.25L1242.7,709L1212.1,762z M1151.48,761h60.04
				l30.02-52l-30.02-52h-60.04l-30.02,52L1151.48,761z"/>
		</g>
		<g>
			<path class="st2" d="M1395.1,762h-61.2l-0.14-0.25L1303.3,709l30.6-53h61.2l0.14,0.25L1425.7,709L1395.1,762z M1334.48,761h60.04
				l30.02-52l-30.02-52h-60.04l-30.02,52L1334.48,761z"/>
		</g>
		<g>
			<path class="st2" d="M1486.1,814h-61.2l-0.14-0.25L1394.3,761l30.6-53h61.2l0.14,0.25L1516.7,761L1486.1,814z M1425.48,813h60.04
				l30.02-52l-30.02-52h-60.04l-30.02,52L1425.48,813z"/>
		</g>
		<g>
			<path class="st2" d="M1668.1,814h-61.2l-0.14-0.25L1576.3,761l30.6-53h61.2l0.14,0.25L1698.7,761L1668.1,814z M1607.48,813h60.04
				l30.02-52l-30.02-52h-60.04l-30.02,52L1607.48,813z"/>
		</g>
		<g>
			<path class="st2" d="M1759.1,866h-61.2l-0.14-0.25L1667.3,813l30.6-53h61.2l0.14,0.25L1789.7,813L1759.1,866z M1698.48,865h60.04
				l30.02-52l-30.02-52h-60.04l-30.02,52L1698.48,865z"/>
		</g>
		<g>
			<path class="st2" d="M1759.1,658h-61.2l-0.14-0.25L1667.3,605l30.6-53h61.2l0.14,0.25L1789.7,605L1759.1,658z M1698.48,657h60.04
				l30.02-52l-30.02-52h-60.04l-30.02,52L1698.48,657z"/>
		</g>
		<g>
			<path class="st2" d="M1850.68,606h-62.35l-31.18-54l31.18-54h62.35l31.18,54L1850.68,606z M1790.06,603h58.89l29.45-51l-29.45-51
				h-58.89l-29.45,51L1790.06,603z"/>
		</g>
		<g>
			<path class="st2" d="M1881.9,551l0.23,0.38l0.32,0.55l-0.04,0.07h3.53l0.59-1H1881.9z M1881.9,551l0.23,0.38l0.32,0.55
				l-0.04,0.07h3.53l0.59-1H1881.9z M1881.9,551l0.23,0.38l0.32,0.55l-0.04,0.07h3.53l0.59-1H1881.9z M1850.89,498.31l3.12-5.31
				l1.78-3l25.3-43H1900v-1h-19.5l-25.9,44l-1.77,3l-2.94,5l-0.59,1l31.06,52.75l0.14,0.25h19.5v-1h-18.91l-30.61-52l0.39-0.66
				L1850.89,498.31z M1881.9,551l0.23,0.38l0.32,0.55l-0.04,0.07h3.53l0.59-1H1881.9z M1881.9,551l0.23,0.38l0.32,0.55l-0.04,0.07
				h3.53l0.59-1H1881.9z M1881.9,551l0.23,0.38l0.32,0.55l-0.04,0.07h3.53l0.59-1H1881.9z M1881.9,551l0.23,0.38l0.32,0.55
				l-0.04,0.07h3.53l0.59-1H1881.9z"/>
		</g>
		<g>
			<path class="st2" d="M1882.43,760l0.58,1h0.99l0.59-1H1882.43z M1882.43,760l0.58,1h0.99l0.59-1H1882.43z M1882.43,760l0.58,1
				h0.99l0.59-1H1882.43z M1882.43,760l0.58,1h0.99l0.59-1H1882.43z M1881.21,760l-0.29,0.5l-0.89,1.53l-0.38,0.66l-0.48,0.82
				l-18.56,31.81l-4.48,7.68l-0.8,1.38l-0.66,1.12l-1.45,2.5l-2.92,5l1.01,1.73v0.01l0.34,0.57l4.54,7.78l24.87,42.66l0.15,0.25
				H1900V760H1881.21z M1899.99,865h-18.2L1857,822.49l-3.85-6.61l-0.92-1.58l-0.76-1.3l2.92-5l1.45-2.5l0.35-0.59l5.42-9.3
				l20.18-34.61h18.2V865z M1882.43,760l0.58,1h0.99l0.59-1H1882.43z M1882.43,760l0.58,1h0.99l0.59-1H1882.43z M1882.43,760l0.58,1
				h0.99l0.59-1H1882.43z"/>
		</g>
		<g>
			<path class="st2" d="M1881.21,655l-25.08,43l-1.46,2.5l-1.45,2.5l-1.86,3.19l-1.06,1.81l30.61,52.5h0.01l0.14,0.25l0.15,0.25
				H1900V655H1881.21z M1899.99,760h-18.2l-0.3-0.51L1851.47,708l0.47-0.81l2.45-4.19l1.45-2.5l1.46-2.5l24.49-42h18.2V760z"/>
		</g>
		<g>
			<path class="st2" d="M1577.1,657h-61.2l-0.14-0.25L1485.3,604l30.6-53h61.2l0.14,0.25L1607.7,604L1577.1,657z M1516.48,656h60.04
				l30.02-52l-30.02-52h-60.04l-30.02,52L1516.48,656z"/>
		</g>
		<g>
			<path class="st2" d="M1395.1,657h-61.2l-0.14-0.25L1303.3,604l30.6-53h61.2l0.14,0.25L1425.7,604L1395.1,657z M1334.48,656h60.04
				l30.02-52l-30.02-52h-60.04l-30.02,52L1334.48,656z"/>
		</g>
		<g>
			<path class="st2" d="M1030.1,868h-61.2l-0.14-0.25L938.3,815l0.14-0.25L968.9,762h61.2l0.14,0.25L1060.7,815L1030.1,868z
				 M969.48,867h60.04l30.02-52l-30.02-52h-60.04l-30.02,52L969.48,867z"/>
		</g>
		<g>
			<path class="st2" d="M666.1,658h-61.2l-30.6-53l0.14-0.25L604.9,552h61.2l30.6,53l-0.14,0.25L666.1,658z M605.48,657h60.04
				l30.02-52l-30.02-52h-60.04l-30.02,52L605.48,657z"/>
		</g>
		<g>
			<path class="st2" d="M121.1,869H59.9l-30.6-53l0.14-0.25L59.9,763h61.2l30.6,53l-0.14,0.25L121.1,869z M60.48,868h60.04l30.02-52
				l-30.02-52H60.48l-30.02,52L60.48,868z"/>
		</g>
		<g>
			<path class="st2" d="M58.75,765l-0.21-0.36l-19.19,32.45l-5.17,8.73l-0.7,1.18l-0.59,1l-0.29,0.5l-0.89,1.5h1.06l0.87-1.5h0.15
				l0.29-0.5l0.59-1l0.44-0.74l5.32-8.99L59.52,765H58.75z M29.65,710.5l-0.3-0.5H0v1h28.76l30.75,52l-0.97,1.64l-19.19,32.45
				l-5.17,8.73l-0.7,1.18l-0.59,1l-0.29,0.5l-0.89,1.5l-2.63,4.44L28.75,815H0v1h29.35l0.42-0.71l0.17-0.29l2.96-5l0.89-1.5
				l0.29-0.5l0.59-1l0.44-0.74l5.32-8.99L59.52,765l1.18-2L29.65,710.5z"/>
		</g>
		<g>
			<circle class="st2" cx="120.5" cy="658.5" r="11"/>
		</g>
		<g>
			<circle class="st2" cx="240" cy="449" r="11"/>
		</g>
		<g>
			<circle class="st2" cx="243" cy="764" r="11"/>
		</g>
		<g>
			<circle class="st2" cx="514" cy="711" r="11"/>
		</g>
		<g>
			<circle class="st2" cx="424" cy="867" r="11"/>
		</g>
		<g>
			<circle class="st2" cx="756" cy="815" r="11"/>
		</g>
		<g>
			<circle class="st2" cx="1030" cy="657" r="11"/>
		</g>
		<g>
			<circle class="st2" cx="1516" cy="656" r="11"/>
		</g>
		<g>
			<circle class="st2" cx="1698" cy="762" r="11"/>
		</g>
		<g>
			<circle class="st2" cx="1395" cy="447" r="11"/>
		</g>
		<g>
			<circle class="st2" cx="1790" cy="605" r="11"/>
		</g>
		<g>
			<circle class="st2" cx="1850" cy="814" r="11"/>
		</g>
		<g>
			<circle class="st2" cx="211" cy="921" r="11"/>
		</g>
		<g>
			<circle class="st2" cx="333" cy="605" r="11"/>
		</g>
		<g>
			<circle class="st2" cx="30" cy="816" r="11"/>
		</g>
		<g>
			<circle class="st2" cx="120.5" cy="762.5" r="9.5"/>
		</g>
		<g>
			<circle class="st2" cx="513.5" cy="815.5" r="9.5"/>
		</g>
		<g>
			<circle class="st2" cx="665.5" cy="764.5" r="9.5"/>
		</g>
		<g>
			<circle class="st2" cx="969.5" cy="763.5" r="9.5"/>
		</g>
		<g>
			<circle class="st2" cx="1120.5" cy="920.5" r="9.5"/>
		</g>
		<g>
			<circle class="st2" cx="1212.5" cy="761.5" r="9.5"/>
		</g>
		<g>
			<circle class="st2" cx="1667.5" cy="394.5" r="9.5"/>
		</g>
		<g>
			<circle class="st2" cx="483.5" cy="446.5" r="9.5"/>
		</g>
		<g>
			<circle class="st2" cx="242.5" cy="657.5" r="6.5"/>
		</g>
		<g>
			<circle class="st2" cx="392.5" cy="711.5" r="6.5"/>
		</g>
		<g>
			<circle class="st2" cx="878.5" cy="919.5" r="6.5"/>
		</g>
		<g>
			<circle class="st2" cx="696.5" cy="604.5" r="6.5"/>
		</g>
		<g>
			<circle class="st2" cx="878.5" cy="605.5" r="6.5"/>
		</g>
		<g>
			<circle class="st2" cx="574.5" cy="605.5" r="6.5"/>
		</g>
		<g>
			<circle class="st2" cx="756.5" cy="710.5" r="6.5"/>
		</g>
		<g>
			<circle class="st2" cx="605.5" cy="867.5" r="6.5"/>
		</g>
		<g>
			<circle class="st2" cx="847.5" cy="762.5" r="6.5"/>
		</g>
		<g>
			<circle class="st2" cx="1242.5" cy="920.5" r="6.5"/>
		</g>
		<g>
			<circle class="st2" cx="1395.5" cy="866.5" r="6.5"/>
		</g>
		<g>
			<circle class="st2" cx="302.5" cy="868.5" r="6.5"/>
		</g>
		<g>
			<circle class="st2" cx="29.5" cy="604.5" r="6.5"/>
		</g>
		<g>
			<circle class="st2" cx="243.5" cy="552.5" r="6.5"/>
		</g>
		<g>
			<circle class="st2" cx="392.5" cy="501.5" r="6.5"/>
		</g>
		<g>
			<circle class="st2" cx="847.5" cy="975.5" r="6.5"/>
		</g>
		<g>
			<circle class="st2" cx="665.5" cy="448.5" r="6.5"/>
		</g>
		<g>
			<path class="st3" d="M605.5,762.5"/>
		</g>
		<g>
			<polygon class="st2" points="1242.07,920.75 1211.34,868.25 1151.59,868.25 1151.44,868 1120.07,814.75 1120.93,814.25 
				1152.16,867.25 1211.91,867.25 1242.93,920.25 			"/>
		</g>
		<g>
			<polygon class="st2" points="211.5,921 151.21,921 120.07,867.75 120.93,867.25 151.79,920 211.5,920 			"/>
		</g>
		<g>
			<polygon class="st2" points="1121,920.5 1060.71,920.5 1029.57,867.75 1030.43,867.25 1061.29,919.5 1121,919.5 			"/>
		</g>
		<g>
			<circle class="st2" cx="1849.5" cy="915.5" r="9.5"/>
		</g>
		<g>
			<polygon class="st2" points="1850,918 1789.71,918 1758.57,865.25 1759.43,864.75 1790.29,917 1850,917 			"/>
		</g>
		<g>
			<polygon class="st2" points="1395,868 1334.14,868 1302.71,814.76 1305.29,813.24 1335.86,865 1395,865 			"/>
		</g>
		<g>
			<polygon class="st2" points="847.5,976 786.64,976 755.21,922.26 757.79,920.74 788.36,973 847.5,973 			"/>
		</g>
		<g>
			<polygon class="st2" points="121.3,554.25 118.7,552.75 149.13,500 209.13,500 238.69,447.76 241.31,449.24 210.87,503 
				150.87,503 			"/>
		</g>
		<g>
			<circle class="st2" cx="1153.5" cy="552.5" r="6.5"/>
		</g>
		<g>
			<circle class="st2" cx="1120.5" cy="815.5" r="6.5"/>
		</g>
		<g>
			<circle class="st2" cx="1425.5" cy="710.5" r="6.5"/>
		</g>
		<g>
			<circle class="st2" cx="1576.5" cy="760.5" r="6.5"/>
		</g>
		<g>
			<circle class="st2" cx="1607.5" cy="604.5" r="6.5"/>
		</g>
		<g>
			<circle class="st2" cx="1789.5" cy="710.5" r="6.5"/>
		</g>
		<g>
			<circle class="st2" cx="1758.5" cy="865.5" r="6.5"/>
		</g>
		<g>
			<circle class="st2" cx="1334.5" cy="657.5" r="6.5"/>
		</g>
		<g>
			<polygon class="st2" points="1304,605 1243.72,605 1212.72,553 1153,553 1153,552 1213.28,552 1244.28,604 1304,604 			"/>
		</g>
		<g>
			<circle class="st2" cx="1608.5" cy="500.5" r="6.5"/>
		</g>
		<g>
			<polygon class="st2" points="1758,553 1697.72,553 1666.72,501 1607,501 1607,500 1667.28,500 1698.28,552 1758,552 			"/>
		</g>
		<g>
			<path class="st3" d="M389.5,709.5"/>
		</g>
		<g>
			<polygon class="st2" points="787.07,553.75 756.21,501 696.22,501 665.07,448.76 665.93,448.24 696.78,500 756.79,500 
				787.93,553.25 			"/>
		</g>
		<g>
			<polygon class="st2" points="1516.07,551.75 1485.21,499 1425.22,499 1394.07,446.76 1394.93,446.24 1425.78,498 1485.79,498 
				1516.93,551.25 			"/>
		</g>
		<g>
			<polygon class="st2" points="1788.21,500.26 1757.64,448 1697.65,448 1666.21,395.27 1668.79,393.73 1699.35,445 1759.36,445 
				1790.79,498.74 			"/>
		</g>
		<g>
			<circle class="st2" cx="938.5" cy="501.5" r="6.5"/>
		</g>
		<g>
			<polygon class="st2" points="1058.34,607.76 1028.07,556 968.08,556 936.35,502.78 940.65,500.22 970.92,551 1030.93,551 
				1062.66,605.24 			"/>
		</g>
		<g>
			<polygon class="st2" points="604.21,552.26 573.64,500 513.65,500 482.21,447.27 484.79,445.73 515.35,497 575.36,497 
				606.79,550.74 			"/>
		</g>
		<g>
			<polygon class="st2" points="61.79,552.74 61.21,553.08 59.21,554.26 58.17,552.49 28.64,502 0.5,502 0.5,499 30.36,499 
				60.48,550.5 61.6,552.41 			"/>
		</g>
		<g>
			<polygon class="st2" points="514.07,606.75 483.21,554 423.22,554 392.07,501.76 392.93,501.24 423.78,553 483.79,553 
				514.93,606.25 			"/>
		</g>
	</g>
</g>
<g id="Layer_6">
	<radialGradient id="SVGID_1_" cx="950" cy="600.25" r="1135.9374" fx="2010.0685" fy="1008.4272" gradientUnits="userSpaceOnUse">
		<stop  offset="0" style="stop-color:#FFFFFF;stop-opacity:0.9"/>
		<stop  offset="0.967" style="stop-color:#FFFFFF;stop-opacity:0.7"/>
	</radialGradient>
	<rect y="0.5" class="st5" width="1900" height="1199.5"/>
</g>
<g id="Layer_3" class="st0">
	<g class="st6">
		<line class="st7" x1="94" y1="511.86" x2="-3.5" y2="555.6"/>
		<circle class="st2" cx="94" cy="511.86" r="8.6"/>
		<circle class="st8" cx="39" cy="469.86" r="8.6"/>
		<circle class="st9" cx="161.4" cy="564.2" r="8.6"/>
		<line class="st7" x1="66.04" y1="597.9" x2="-3.5" y2="589.29"/>
		<circle class="st2" cx="66.04" cy="597.9" r="8.6"/>
		<circle class="st9" cx="30.04" cy="671.9" r="8.6"/>
		<circle class="st2" cx="170.04" cy="721.9" r="8.6"/>
		<circle class="st2" cx="224.04" cy="511.9" r="8.6"/>
		<circle class="st2" cx="224.04" cy="597.9" r="8.6"/>
		<circle class="st2" cx="309.04" cy="633.9" r="8.6"/>
		<circle class="st2" cx="194.04" cy="432.9" r="8.6"/>
		<circle class="st8" cx="329.04" cy="520.9" r="8.6"/>
		<circle class="st2" cx="338.04" cy="756.9" r="8.6"/>
		<circle class="st2" cx="207.04" cy="695.9" r="8.6"/>
		<circle class="st2" cx="137.04" cy="657.9" r="8.6"/>
		<circle class="st2" cx="394.04" cy="703.9" r="8.6"/>
		<circle class="st2" cx="146.04" cy="416.9" r="8.6"/>
		<polygon class="st10" points="66.04,597.9 94,511.86 161.4,564.2 		"/>
		<path class="st7" d="M330.5,565.5"/>
		<path class="st7" d="M102.61,534.09"/>
		<polyline class="st10" points="-19.5,554.5 39.5,469.5 94.5,511.5 224.5,511.5 161,564 137.5,657.5 30,672 66.5,721.5 
			169.5,721.5 		"/>
		<path class="st10" d="M-11.5,441.5"/>
		<path class="st10" d="M-87.5,454.5c5,0,127,15,127,15l54-53h52"/>
		<polyline class="st10" points="-24,635 30,672 66,598 137.5,657.5 250.5,657.5 297.5,703.5 394,703.5 		"/>
		<path class="st9" d="M169.5,734.5"/>
		<polyline class="st10" points="207.5,695.5 259.5,756.5 338.5,756.5 		"/>
		<polyline class="st10" points="137.5,657.5 224.5,597.5 309.5,633.5 329.5,520.5 224.5,511.5 224.5,597.5 161.5,564.5 		"/>
		<line class="st10" x1="224.5" y1="597.5" x2="329.5" y2="520.5"/>
		<polyline class="st10" points="94,511 194,433 224,511 		"/>
		<line class="st9" x1="30" y1="672" x2="-37" y2="734"/>
	</g>
</g>
<g id="Layer_4" class="st0">
	<polygon class="st11" points="1899.5,48.5 1899.5,1199.5 -0.5,1199.5 -0.5,48.5 675.5,48.5 675.5,863.5 1215.5,863.5 1215.5,48.5 	
		"/>
</g>
</svg>
