<svg xmlns="http://www.w3.org/2000/svg" viewBox="0 0 125.73 108.44"><defs><style>.cls-1{opacity:0.5;}.cls-2{fill:#5e6bb2;}.cls-3{opacity:0.7;}.cls-4{fill:#8fa4ad;}.cls-5{fill:#fff;}</style></defs><title>Asset 3</title><g id="Layer_2" data-name="Layer 2"><g id="Layer_1-2" data-name="Layer 1"><g class="cls-1"><polygon class="cls-2" points="111.33 25.54 63.8 52.03 63.8 0 111.33 25.54"/></g><g class="cls-3"><path class="cls-4" d="M112,64.25V82.52L63.8,108.44V58.11L75.9,83.18a1,1,0,0,0,.6.52,1,1,0,0,0,.55,0,.85.85,0,0,0,.24-.09Z"/></g><g class="cls-1"><polygon class="cls-4" points="125.73 54.33 112.6 61.65 77.24 81.36 64.34 54.62 64.32 54.58 64.11 54.15 112.6 27.13 125.73 54.33"/><path class="cls-5" d="M76.5,83.7a1,1,0,0,0,.3,0,.73.73,0,0,0,.25,0A1,1,0,0,1,76.5,83.7Z"/></g><g class="cls-1"><polygon class="cls-4" points="14.4 25.54 61.93 52.03 61.93 0 14.4 25.54"/></g><g class="cls-3"><path class="cls-2" d="M13.69,64.25V82.52l48.24,25.92V58.11L49.83,83.18a1,1,0,0,1-.6.52,1,1,0,0,1-.55,0,.85.85,0,0,1-.24-.09Z"/></g><g class="cls-1"><polygon class="cls-2" points="0 54.33 13.13 61.65 48.49 81.36 61.39 54.62 61.41 54.58 61.62 54.15 13.13 27.13 0 54.33"/><path class="cls-2" d="M48.68,83.71a.73.73,0,0,0,.25,0,1,1,0,0,0,.3,0A1,1,0,0,1,48.68,83.71Z"/></g></g></g></svg>