<svg xmlns="http://www.w3.org/2000/svg" viewBox="0 0 572.04 82.65"><defs><style>.cls-1{fill:#fff;}.cls-2{fill:#fcb316;}</style></defs><title>Asset 8</title><g id="Layer_2" data-name="Layer 2"><g id="Layer_1-2" data-name="Layer 1"><path class="cls-1" d="M150.35,38H122.19V63.75h32.09v2.08H120.1V9.67h34.18v2.08H122.19V35.9h28.16Z"/><path class="cls-1" d="M178.27,66.6A16.8,16.8,0,0,1,169,63.88a18.67,18.67,0,0,1-6.62-7.46A23.16,23.16,0,0,1,160,45.89V44.15a24.12,24.12,0,0,1,2.32-10.61A18.33,18.33,0,0,1,168.67,26a15.59,15.59,0,0,1,8.83-2.7,14.59,14.59,0,0,1,11.42,5q4.44,5,4.44,13.07v2.2H162.07v2.27a21.08,21.08,0,0,0,2.14,9.42,16.82,16.82,0,0,0,5.91,6.79,14.51,14.51,0,0,0,8.15,2.47,16.65,16.65,0,0,0,7.16-1.4,14.55,14.55,0,0,0,5.23-4.31l1.46,1Q187.46,66.6,178.27,66.6Zm-.77-41.2a13.58,13.58,0,0,0-10.33,4.54,19.3,19.3,0,0,0-5,11.55h29.08V41a17.57,17.57,0,0,0-1.79-7.89,13.83,13.83,0,0,0-4.94-5.67A12.71,12.71,0,0,0,177.5,25.4Z"/><path class="cls-1" d="M201.11,44.54q0-10,4.2-15.61a13.64,13.64,0,0,1,11.54-5.61,16,16,0,0,1,8.29,2.14A15.61,15.61,0,0,1,231,31.73V24.09h2.12v41q0,8.25-4.24,12.9t-11.54,4.65a16.4,16.4,0,0,1-7.69-1.82,16.94,16.94,0,0,1-6-5.22l1.46-1.39a18.38,18.38,0,0,0,5.33,4.71,13.53,13.53,0,0,0,6.78,1.64q6.45,0,10-3.91t3.71-11v-6.4a14.51,14.51,0,0,1-5.85,5.46,17.9,17.9,0,0,1-8.35,1.91,13.44,13.44,0,0,1-11.46-5.75q-4.2-5.74-4.2-15.77Zm2.12.81q0,8.94,3.55,14.06a11.42,11.42,0,0,0,9.95,5.11,16,16,0,0,0,9-2.45A13.18,13.18,0,0,0,231,55.18V36.24q-3.41-10.83-14.16-10.84a11.56,11.56,0,0,0-10,5.06Q203.23,35.52,203.23,45.35Z"/><path class="cls-1" d="M296,49.05h-27.5l-6.25,16.78h-2.27L281,9.67h2.55l21,56.16h-2.28ZM269.23,47h26l-13-34.8Z"/><path class="cls-1" d="M338.2,55.61q0-7.61-13-10.34Q317.46,43.6,314.4,41a8.92,8.92,0,0,1-3-7.16,9.14,9.14,0,0,1,3.87-7.56,16.15,16.15,0,0,1,10.09-3q6.75,0,10.84,3.22a10.52,10.52,0,0,1,4.09,8.7h-2.12a8.65,8.65,0,0,0-3.55-7,14.44,14.44,0,0,0-9.26-2.82c-3.65,0-6.55.8-8.68,2.4a7.2,7.2,0,0,0-3.2,6,7.3,7.3,0,0,0,1.19,4.42,10.31,10.31,0,0,0,3.9,2.89,39.55,39.55,0,0,0,7.87,2.49,33.73,33.73,0,0,1,8.18,2.82,11.09,11.09,0,0,1,4.36,3.84,10.23,10.23,0,0,1,1.35,5.42,9.41,9.41,0,0,1-4.05,7.94q-4,3-10.61,3-7,0-11.32-3.18a9.76,9.76,0,0,1-4.3-8.2h2.08A8.62,8.62,0,0,0,316,62.07q3.55,2.45,9.66,2.45a14.77,14.77,0,0,0,9.08-2.61A7.65,7.65,0,0,0,338.2,55.61Z"/><path class="cls-1" d="M377.51,55.61q0-7.61-13-10.34-7.8-1.67-10.84-4.26a8.93,8.93,0,0,1-3-7.16,9.15,9.15,0,0,1,3.88-7.56q3.87-3,10.09-3,6.75,0,10.84,3.22a10.52,10.52,0,0,1,4.09,8.7h-2.13a8.62,8.62,0,0,0-3.55-7,14.41,14.41,0,0,0-9.25-2.82c-3.65,0-6.55.8-8.68,2.4a7.17,7.17,0,0,0-3.2,6,7.23,7.23,0,0,0,1.19,4.42,10.31,10.31,0,0,0,3.9,2.89,39.55,39.55,0,0,0,7.87,2.49,33.63,33.63,0,0,1,8.17,2.82,11,11,0,0,1,4.36,3.84,10.23,10.23,0,0,1,1.35,5.42,9.41,9.41,0,0,1-4,7.94q-4.05,3-10.6,3-7,0-11.33-3.18a9.79,9.79,0,0,1-4.3-8.2h2.09a8.61,8.61,0,0,0,3.87,6.85q3.57,2.45,9.67,2.45A14.79,14.79,0,0,0,374,61.91,7.65,7.65,0,0,0,377.51,55.61Z"/><path class="cls-1" d="M390.51,11.05a2.11,2.11,0,0,1,.62-1.52,2,2,0,0,1,1.5-.64,2.09,2.09,0,0,1,1.52.64,2,2,0,0,1,.64,1.52,2,2,0,0,1-.64,1.51,2.11,2.11,0,0,1-1.52.62,2.12,2.12,0,0,1-2.12-2.13Zm3.16,54.78h-2.08V24.09h2.08Z"/><path class="cls-1" d="M433.1,55.61q0-7.61-13-10.34Q412.34,43.6,409.3,41a8.9,8.9,0,0,1-3.05-7.16,9.14,9.14,0,0,1,3.87-7.56,16.15,16.15,0,0,1,10.09-3q6.75,0,10.84,3.22a10.49,10.49,0,0,1,4.09,8.7H433a8.62,8.62,0,0,0-3.55-7,14.44,14.44,0,0,0-9.26-2.82q-5.47,0-8.68,2.4a7.2,7.2,0,0,0-3.2,6,7.23,7.23,0,0,0,1.2,4.42,10.19,10.19,0,0,0,3.89,2.89,39.77,39.77,0,0,0,7.87,2.49,33.73,33.73,0,0,1,8.18,2.82,11,11,0,0,1,4.36,3.84,10.23,10.23,0,0,1,1.35,5.42,9.41,9.41,0,0,1-4.05,7.94q-4,3-10.61,3-7,0-11.32-3.18a9.76,9.76,0,0,1-4.3-8.2H407a8.64,8.64,0,0,0,3.88,6.85q3.57,2.45,9.66,2.45a14.75,14.75,0,0,0,9.08-2.61A7.66,7.66,0,0,0,433.1,55.61Z"/><path class="cls-1" d="M451.34,12.83V24.09h9.49v2.09h-9.49V55.83q0,4.44,1.45,6.56c1,1.42,2.58,2.13,4.84,2.13a30.27,30.27,0,0,0,4.13-.35l.34,2a14.17,14.17,0,0,1-4.36.46q-4.55,0-6.51-2.53c-1.32-1.68-2-4.34-2-8V26.18h-7.71V24.09h7.71V12.83Z"/><path class="cls-1" d="M498.63,65.83a29.15,29.15,0,0,1-.77-7.64,16.59,16.59,0,0,1-6.75,6.21,20.82,20.82,0,0,1-9.68,2.2,13.53,13.53,0,0,1-9.32-3.14,11,11,0,0,1,1.66-17.4q5.19-3.45,13.79-3.53h10.3V36.44q0-5.25-3.3-8.14t-9.43-2.9a15.18,15.18,0,0,0-9.53,2.94,8.83,8.83,0,0,0-3.81,7.25l-2.09-.08a10.68,10.68,0,0,1,4.48-8.64,17,17,0,0,1,10.95-3.55q6.75,0,10.73,3.38c2.64,2.25,4,5.42,4.08,9.5V56.15c0,4.58.37,7.69,1.08,9.33v.35Zm-17.2-1.31a18.83,18.83,0,0,0,10.09-2.62,16.27,16.27,0,0,0,6.34-7.37V44.61h-9.64q-9,0-13.7,3.55a8.72,8.72,0,0,0-3.85,7.22,8.31,8.31,0,0,0,3,6.48A11.35,11.35,0,0,0,481.43,64.52Z"/><path class="cls-1" d="M515.45,33.81a17.37,17.37,0,0,1,6-7.67,14.85,14.85,0,0,1,8.79-2.82q6.72,0,10,3.8t3.29,11.48V65.83h-2.08V38.54q0-6.7-2.74-9.92c-1.8-2.14-4.65-3.22-8.56-3.22a13,13,0,0,0-9.36,3.84,19.51,19.51,0,0,0-5.34,9.88V65.83h-2.08V24.09h2.08Z"/><path class="cls-1" d="M561.28,12.83V24.09h9.49v2.09h-9.49V55.83q0,4.44,1.45,6.56t4.84,2.13a30.14,30.14,0,0,0,4.12-.35l.35,2a14.22,14.22,0,0,1-4.36.46c-3,0-5.21-.84-6.52-2.53s-2-4.34-2-8V26.18h-7.72V24.09h7.72V12.83Z"/><path class="cls-2" d="M26.68,0,14.93,6.78l6.67,3.83a3.23,3.23,0,0,1,2.19-.86A3.28,3.28,0,1,1,20.51,13a2.66,2.66,0,0,1,.08-.69L12.93,7.93,1.16,14.72,15,23.59v5.54a3.28,3.28,0,1,1-2,0V24.68L0,16.35V44.71H14.4l9.65-7.34a3.16,3.16,0,0,1-.26-1.26,3.28,3.28,0,1,1,3.27,3.28,3.13,3.13,0,0,1-1.71-.5L15.07,46.71H0V60.45L13,68v-5.8l10.87-7.23a3.47,3.47,0,0,1-.08-.73,3.28,3.28,0,1,1,1.11,2.45L15,63.23v5.89l12,6.94L38,69.7V6.54Z"/><path class="cls-2" d="M63.66,44.71H78.05V16.35l-13,8.33v4.45a3.27,3.27,0,1,1-2,0V23.59l13.83-8.87L65.13,7.94h0l-7.65,4.4a2.71,2.71,0,0,1,.08.69,3.28,3.28,0,1,1-3.28-3.28,3.23,3.23,0,0,1,2.2.86l6.66-3.83L51.37,0,40,6.54V69.7l11,6.36,12-6.94h0V63.23l-9.9-6.58a3.27,3.27,0,1,1,1.11-2.45,3.55,3.55,0,0,1-.08.73l10.87,7.23V68l13-7.5V46.71H63L52.71,38.89a3.13,3.13,0,0,1-1.71.5,3.28,3.28,0,1,1,3.27-3.28A3.16,3.16,0,0,1,54,37.37Z"/></g><g id="Layer_3" data-name="Layer 3"><path class="cls-2" d="M38,69.7,27,76.06,15,69.12V63.23l9.9-6.58a3.27,3.27,0,1,0-1.11-2.45,3.47,3.47,0,0,0,.08.73L13,62.16V68L0,60.45V46.71H15.07l10.28-7.82a3.13,3.13,0,0,0,1.71.5,3.28,3.28,0,1,0-3.27-3.28,3.16,3.16,0,0,0,.26,1.26L14.4,44.71H0V16.35l13,8.33v4.45a3.27,3.27,0,1,0,2,0V23.59L1.16,14.72,12.93,7.93l7.66,4.41a2.66,2.66,0,0,0-.08.69,3.28,3.28,0,1,0,3.28-3.28,3.23,3.23,0,0,0-2.19.86L14.93,6.78,26.68,0,38,6.54Zm40-25H63.66L54,37.37a3.16,3.16,0,0,0,.26-1.26A3.28,3.28,0,1,0,51,39.39a3.13,3.13,0,0,0,1.71-.5L63,46.71H78.05V60.45l-13,7.5V62.16L54.19,54.93a3.55,3.55,0,0,0,.08-.73,3.28,3.28,0,1,0-1.11,2.45l9.9,6.58v5.88h0L51,76.06,40,69.7V6.54L51.37,0,63.13,6.78l-6.66,3.83a3.23,3.23,0,0,0-2.2-.86A3.28,3.28,0,1,0,57.55,13a2.71,2.71,0,0,0-.08-.69l7.65-4.4h0l11.76,6.78L63.06,23.59v5.54a3.28,3.28,0,1,0,2,0V24.68l13-8.33Z"/></g></g></svg>