<svg xmlns="http://www.w3.org/2000/svg" viewBox="0 0 89.33 113.79"><defs><style>.cls-1,.cls-3{fill:#8fa4ad;}.cls-1,.cls-2,.cls-3{stroke:#fff;stroke-linecap:round;stroke-linejoin:round;stroke-width:2px;}.cls-2{fill:#5e6bb2;}.cls-3{opacity:0.7;}.cls-4{fill:#fff;}</style></defs><title>Asset 4</title><g id="Layer_2" data-name="Layer 2"><g id="Layer_1-2" data-name="Layer 1"><polygon class="cls-1" points="74.8 1 74.8 99.95 1 99.95 1 18.72 18.72 1 74.8 1"/><line class="cls-2" x1="13.93" y1="26.53" x2="61.88" y2="26.53"/><line class="cls-2" x1="13.93" y1="31.23" x2="61.88" y2="31.23"/><line class="cls-2" x1="13.93" y1="35.92" x2="61.88" y2="35.92"/><line class="cls-2" x1="13.93" y1="46.03" x2="61.88" y2="46.03"/><line class="cls-2" x1="13.93" y1="50.73" x2="61.88" y2="50.73"/><line class="cls-2" x1="13.93" y1="55.42" x2="61.88" y2="55.42"/><line class="cls-2" x1="13.93" y1="65.53" x2="61.88" y2="65.53"/><line class="cls-2" x1="13.93" y1="70.23" x2="61.88" y2="70.23"/><line class="cls-2" x1="13.93" y1="74.93" x2="61.88" y2="74.93"/><polygon class="cls-2" points="18.72 1 18.72 18.72 1 18.72 18.72 1"/><path class="cls-2" d="M28.24,52.69A21.3,21.3,0,0,0,55.93,84.9l27.88,27.89,4.52-4.52L60.45,80.38A21.3,21.3,0,0,0,28.24,52.69ZM53.73,78.18a14.75,14.75,0,1,1,0-20.86A14.74,14.74,0,0,1,53.73,78.18Z"/><path class="cls-3" d="M53.74,57.32a14.76,14.76,0,1,1-20.87,0A14.74,14.74,0,0,1,53.74,57.32Z"/><path class="cls-4" d="M41.34,72a5.69,5.69,0,0,1,2.1-5A12.93,12.93,0,0,0,45,65.36a3,3,0,0,0,.52-1.69,2.58,2.58,0,0,0-.6-1.84,2.3,2.3,0,0,0-1.75-.63,2.49,2.49,0,0,0-1.78.62,2.16,2.16,0,0,0-.67,1.68H37.62a4.61,4.61,0,0,1,1.54-3.6,6,6,0,0,1,4-1.32,5.73,5.73,0,0,1,4,1.31,4.69,4.69,0,0,1,1.45,3.66,6,6,0,0,1-2,4.12l-1.57,1.56A4.21,4.21,0,0,0,44.25,72Zm-.22,4a1.65,1.65,0,0,1,.48-1.23,1.73,1.73,0,0,1,1.28-.46,1.75,1.75,0,0,1,1.3.48A1.67,1.67,0,0,1,44.65,76a1.6,1.6,0,0,1-.46,1.17,1.72,1.72,0,0,1-1.31.47,1.7,1.7,0,0,1-1.3-.47A1.6,1.6,0,0,1,41.12,76Z"/></g></g></svg>