<svg xmlns="http://www.w3.org/2000/svg" viewBox="0 0 78.05 76.06"><defs><style>.cls-1{fill:#fcb316;}</style></defs><title>Asset 7</title><g id="Layer_2" data-name="Layer 2"><g id="Layer_3" data-name="Layer 3"><path class="cls-1" d="M38,69.7,27,76.06,15,69.12V63.23l9.9-6.58a3.27,3.27,0,1,0-1.11-2.45,3.47,3.47,0,0,0,.08.73L13,62.16V68L0,60.45V46.71H15.07l10.28-7.82a3.13,3.13,0,0,0,1.71.5,3.28,3.28,0,1,0-3.27-3.28,3.16,3.16,0,0,0,.26,1.26L14.4,44.71H0V16.35l13,8.33v4.45a3.27,3.27,0,1,0,2,0V23.59L1.16,14.72,12.93,7.93l7.66,4.41a2.66,2.66,0,0,0-.08.69,3.28,3.28,0,1,0,3.28-3.28,3.23,3.23,0,0,0-2.19.86L14.93,6.78,26.68,0,38,6.54Zm40-25H63.66L54,37.37a3.16,3.16,0,0,0,.26-1.26A3.28,3.28,0,1,0,51,39.39a3.13,3.13,0,0,0,1.71-.5L63,46.71H78.05V60.45l-13,7.5V62.16L54.19,54.93a3.55,3.55,0,0,0,.08-.73,3.28,3.28,0,1,0-1.11,2.45l9.9,6.58v5.88h0L51,76.06,40,69.7V6.54L51.37,0,63.13,6.78l-6.66,3.83a3.23,3.23,0,0,0-2.2-.86A3.28,3.28,0,1,0,57.55,13a2.71,2.71,0,0,0-.08-.69l7.65-4.4h0l11.76,6.78L63.06,23.59v5.54a3.28,3.28,0,1,0,2,0V24.68l13-8.33Z"/></g></g></svg>